<svg width="48" height="48" viewBox="0 0 48 48" fill="none" xmlns="http://www.w3.org/2000/svg">
  <rect width="48" height="48" rx="8" fill="#FF6B35" opacity="0.1"/>
  <path d="M24 12C17.37 12 12 17.37 12 24C12 30.63 17.37 36 24 36C30.63 36 36 30.63 36 24C36 17.37 30.63 12 24 12ZM24 34C18.48 34 14 29.52 14 24C14 18.48 18.48 14 24 14C29.52 14 34 18.48 34 24C34 29.52 29.52 34 24 34Z" fill="#FF6B35"/>
  <path d="M24 18C21.24 18 19 20.24 19 23C19 25.76 21.24 28 24 28C26.76 28 29 25.76 29 23C29 20.24 26.76 18 24 18Z" fill="#FF6B35"/>
</svg>